<svg width="193" height="75" viewBox="0 0 127 52" fill="none" xmlns="http://www.w3.org/2000/svg">
<g clip-path="url(#clip0_1416_9565)">
<path fill-rule="evenodd" clip-rule="evenodd" d="M33.5854 45.222H8.21011V30.3581L0 32.9855L11.7497 26.1527L22.4031 20.7491L33.5854 45.2181V45.222Z" fill="#070707"/>
<path fill-rule="evenodd" clip-rule="evenodd" d="M46.7016 45.222H42.6062L43.5017 52L38.256 41.181L27.4597 17.7105L43.5017 6.00272H46.7016V45.2181V45.222Z" fill="#33B34A"/>
<path fill-rule="evenodd" clip-rule="evenodd" d="M8.21021 22.0334V6.00663H32.4584L44.6558 0L32.3658 7.51416L27.4636 10.4627L8.21021 22.0373V22.0334Z" fill="#33B34A"/>
<path d="M58.347 40.7033L58.3315 41.4943C58.347 42.3166 58.127 42.9509 57.6715 43.4051C57.2199 43.8593 56.583 44.0825 55.7569 44.0825C54.9309 44.0825 54.3365 43.8672 53.9158 43.4286C53.4912 42.994 53.2827 42.3792 53.2982 41.5843L53.3213 40.6524L53.2982 37.3084H54.3519L54.3017 41.4355C54.294 42.019 54.4175 42.4536 54.6723 42.7394C54.9309 43.0214 55.3169 43.1623 55.8303 43.1623C56.8532 43.1623 57.3627 42.6181 57.3588 41.5295L57.3086 37.3045H58.3779L58.347 40.6994V40.7033Z" fill="#070707"/>
<path d="M66.6073 42.0033L66.6382 44.0003H65.4957L62.3923 38.9843H62.3189L62.3035 41.7566L62.3344 44.0003H61.3694L61.4273 42.019L61.3771 37.3124H62.5042L65.6153 42.3205H65.6964L65.6809 37.3593L66.6614 37.2849L66.6035 41.9994L66.6073 42.0033Z" fill="#070707"/>
<path d="M70.8685 41.8976L70.9187 44.0042H69.8418L69.9151 41.9876L69.8418 37.3123H70.9264L70.8685 41.8976Z" fill="#070707"/>
<path d="M76.7435 44.0003H75.489L73.3506 37.3123H74.443L74.5973 38.072L76.1104 42.9587H76.1838L77.8551 38.1229L78.025 37.3163H79.0787L76.7473 44.0042L76.7435 44.0003Z" fill="#070707"/>
<path d="M85.3125 43.088L85.3704 43.178L85.2971 44.0003H81.4062L81.4796 41.9837L81.4062 37.3084H85.3241L85.382 37.3985L85.3009 38.2208L83.7415 38.1816L82.487 38.1895L82.4562 40.1395L83.6527 40.163L84.7374 40.1316L84.8107 40.2139L84.7297 41.0362L83.564 41.0048L82.4446 41.0283L82.4369 41.8937L82.4677 43.1271L83.7145 43.1349L85.3164 43.084L85.3125 43.088Z" fill="#070707"/>
<path d="M90.9017 41.3259C91.3688 42.0816 91.9169 42.8883 92.5499 43.7497L92.5422 43.8789C92.2141 43.9886 91.8783 44.0591 91.527 44.0982L91.3997 44.0081C90.8323 43.0606 90.3729 42.2618 90.0255 41.6078H88.9061V41.8937L88.9563 44.0003H87.8794L87.9527 41.9838L87.8794 37.3084L90.122 37.2928C90.7821 37.2928 91.2916 37.4612 91.6583 37.7979C92.0211 38.1347 92.2064 38.6163 92.2064 39.2428C92.2064 39.6892 92.0906 40.0925 91.859 40.4488C91.6274 40.8091 91.307 41.0988 90.9017 41.322V41.3259ZM88.9216 40.7386L90.0564 40.7699C90.7473 40.5545 91.0947 40.0729 91.0947 39.325C91.0947 38.9413 90.9905 38.6476 90.7821 38.4518C90.5736 38.256 90.2571 38.1542 89.8325 38.1425L88.9563 38.1738L88.9254 40.7347L88.9216 40.7386Z" fill="#070707"/>
<path d="M97.07 37.2379C97.5873 37.2379 98.1084 37.3476 98.6295 37.5629L98.4596 38.5497L98.2898 38.6084C98.0698 38.4518 97.842 38.3304 97.6066 38.2404C97.375 38.1503 97.155 38.1033 96.9465 38.1033C96.6069 38.1033 96.3405 38.1973 96.1437 38.3892C95.9429 38.5732 95.8464 38.7925 95.8464 39.0431C95.8464 39.2937 95.9468 39.4816 96.1437 39.6382C96.3405 39.7988 96.6532 39.975 97.0778 40.1786C97.4483 40.3587 97.7455 40.5232 97.9771 40.6681C98.2049 40.8169 98.4017 41.0087 98.5638 41.2476C98.7298 41.4864 98.8147 41.7723 98.8147 42.1051C98.8147 42.4693 98.7182 42.806 98.5252 43.1075C98.3322 43.409 98.0582 43.6479 97.7031 43.8241C97.348 44.0003 96.9465 44.0864 96.4949 44.0864C96.19 44.0864 95.8773 44.0473 95.5531 43.9729C95.2327 43.8985 94.9278 43.7849 94.646 43.6401L94.7734 42.5789L94.9085 42.5123C95.1594 42.759 95.4411 42.9431 95.7461 43.0684C96.051 43.1898 96.3328 43.2485 96.5914 43.2485C96.9504 43.2485 97.236 43.1545 97.4445 42.9626C97.6568 42.7669 97.7648 42.5398 97.7648 42.2774C97.7648 42.0151 97.6606 41.7958 97.4522 41.6313C97.2476 41.4669 96.9349 41.2867 96.5104 41.0831C96.1437 40.9108 95.8503 40.7542 95.6264 40.6093C95.4025 40.4684 95.2096 40.2804 95.0474 40.0455C94.8853 39.8066 94.8043 39.5208 94.8043 39.1879C94.8043 38.8238 94.9008 38.491 95.0938 38.1934C95.2867 37.8958 95.5531 37.6608 95.8889 37.4925C96.2324 37.3241 96.6223 37.2379 97.0623 37.2379H97.07Z" fill="#070707"/>
<path d="M102.539 41.8976L102.59 44.0042H101.513L101.586 41.9876L101.513 37.3123H102.597L102.539 41.8976Z" fill="#070707"/>
<path d="M109.804 37.4024L109.738 38.2169L108.55 38.1503H107.994L107.936 41.8937L107.994 44.0003H106.924L106.982 41.9837L106.932 38.1503H106.376L105.16 38.2169L105.087 38.119L105.176 37.3123H109.735L109.8 37.4024H109.804Z" fill="#070707"/>
<path d="M116.184 43.088L116.242 43.178L116.169 44.0003H112.278L112.351 41.9837L112.278 37.3084H116.196L116.254 37.3985L116.173 38.2208L114.613 38.1816L113.359 38.1895L113.328 40.1395L114.525 40.163L115.609 40.1316L115.683 40.2139L115.601 41.0362L114.436 41.0048L113.316 41.0283L113.309 41.8937L113.34 43.1271L114.586 43.1349L116.188 43.084L116.184 43.088Z" fill="#070707"/>
<path d="M122.77 37.4024L122.704 38.2169L121.515 38.1503H120.959L120.901 41.8937L120.959 44.0003H119.89L119.948 41.9837L119.898 38.1503H119.342L118.126 38.2169L118.053 38.119L118.142 37.3123H122.7L122.766 37.4024H122.77Z" fill="#070707"/>
<path d="M126.27 41.8976L126.321 44.0042H125.244L125.317 41.9876L125.244 37.3123H126.328L126.27 41.8976Z" fill="#070707"/>
<path d="M64.6348 11.2967L64.4727 13.4268L61.3539 13.2623H59.9064L59.7713 23.0437L59.9064 28.5491H57.1079L57.27 23.2864L57.1427 13.2623H55.6875L52.5184 13.4268L52.3254 13.1801L52.5416 11.05H64.4766L64.6387 11.2967H64.6348Z" fill="#33B34A"/>
<path d="M80.0012 23.0437L80.1363 28.5491H77.3147L77.5077 23.2864L77.3147 11.05H80.1633L80.0012 23.0437Z" fill="#33B34A"/>
<path d="M97.5216 13.3681L97.4405 18.8735L100.158 18.9322L103.007 18.85L103.192 19.0967L102.976 21.219L99.9109 21.1367L97.4174 21.1681L97.3865 23.0437L97.5216 28.5491H94.7L94.8929 23.2864L94.7 11.05H104.35L104.535 11.2967L104.319 13.509L100.289 13.3446L97.5216 13.3681Z" fill="#33B34A"/>
<path d="M127 11.2967L126.838 13.4268L123.719 13.2623H122.272L122.137 23.0437L122.272 28.5491H119.473L119.635 23.2864L119.508 13.2623H118.053L114.884 13.4268L114.691 13.1801L114.907 11.05H126.842L127.004 11.2967H127Z" fill="#33B34A"/>
</g>
<defs>
<clipPath id="clip0_1416_9565">
<rect width="127" height="52" fill="white"/>
</clipPath>
</defs>
</svg>
